# xmcd
#
# Track frame offsets:
# 150
# 3326
# 24106
# 49366
# 77371
# 112423
# 160143
# 190574
# 223432
#
# Disc length: 3407 seconds
#
# Revision: 1
# Processed by: cddbd v1.5.1PL0 Copyright (c) Steve Scherf et al.
# Submitted via: CedeCatalogueitor 2.6.0.6 http://personales.ya.com/cdcatalogueitor
#
DISCID=6f0d4d09
DTITLE=Clarence Gatemouth Brown - Live At Jazzfest 2005
DYEAR=2005
DGENRE=
TTITLE0=Intro
TTITLE1=Sister Sadie
TTITLE2=Wild Oats
TTITLE3=My Mamma Done Told Me
TTITLE4=Bits And Pieces
TTITLE5=What A Shame, What A Shame
TTITLE6=Grape Jelly
TTITLE7=Born In Lousiana
TTITLE8=Jumpin' The Blues
EXTD=
EXTT0=
EXTT1=
EXTT2=
EXTT3=
EXTT4=
EXTT5=
EXTT6=
EXTT7=
EXTT8=
PLAYORDER=
